<svg width="17" height="17" viewBox="0 0 17 17" fill="none" xmlns="http://www.w3.org/2000/svg">
<path d="M5.125 14.125C5.125 14.57 4.99304 15.005 4.74581 15.375C4.49857 15.745 4.14717 16.0334 3.73604 16.2037C3.3249 16.374 2.8725 16.4186 2.43605 16.3318C1.99959 16.245 1.59868 16.0307 1.28401 15.716C0.969341 15.4013 0.755051 15.0004 0.668231 14.564C0.581421 14.1275 0.625971 13.6751 0.796271 13.264C0.966571 12.8528 1.25496 12.5014 1.62497 12.2542C1.99498 12.007 2.42999 11.875 2.875 11.875C3.47174 11.875 4.04403 12.1121 4.46599 12.534C4.88795 12.956 5.125 13.5283 5.125 14.125ZM2.875 0.625001C2.42999 0.625001 1.99498 0.756961 1.62497 1.00419C1.25496 1.25143 0.966571 1.60283 0.796271 2.01396C0.625971 2.4251 0.581421 2.8775 0.668231 3.31395C0.755051 3.75041 0.969341 4.15132 1.28401 4.46599C1.59868 4.78066 1.99959 4.99495 2.43605 5.08177C2.8725 5.16858 3.3249 5.12403 3.73604 4.95373C4.14717 4.78343 4.49857 4.49504 4.74581 4.12503C4.99304 3.75502 5.125 3.32001 5.125 2.875C5.125 2.27826 4.88795 1.70597 4.46599 1.28401C4.04403 0.862051 3.47174 0.625001 2.875 0.625001ZM2.875 6.25C2.42999 6.25 1.99498 6.38196 1.62497 6.62919C1.25496 6.87643 0.966571 7.22783 0.796271 7.63896C0.625971 8.0501 0.581421 8.5025 0.668231 8.93895C0.755051 9.37541 0.969341 9.7763 1.28401 10.091C1.59868 10.4057 1.99959 10.62 2.43605 10.7068C2.8725 10.7936 3.3249 10.749 3.73604 10.5787C4.14717 10.4084 4.49857 10.12 4.74581 9.75C4.99304 9.38002 5.125 8.94501 5.125 8.5C5.125 7.90326 4.88795 7.33097 4.46599 6.90901C4.04403 6.48705 3.47174 6.25 2.875 6.25ZM8.5 11.875C8.05499 11.875 7.61998 12.007 7.24997 12.2542C6.87996 12.5014 6.59157 12.8528 6.42127 13.264C6.25097 13.6751 6.20642 14.1275 6.29323 14.564C6.38005 15.0004 6.59434 15.4013 6.90901 15.716C7.22368 16.0307 7.62459 16.245 8.06105 16.3318C8.49751 16.4186 8.9499 16.374 9.36104 16.2037C9.7722 16.0334 10.1236 15.745 10.3708 15.375C10.618 15.005 10.75 14.57 10.75 14.125C10.75 13.5283 10.5129 12.956 10.091 12.534C9.669 12.1121 9.09674 11.875 8.5 11.875ZM8.5 0.625001C8.05499 0.625001 7.61998 0.756961 7.24997 1.00419C6.87996 1.25143 6.59157 1.60283 6.42127 2.01396C6.25097 2.4251 6.20642 2.8775 6.29323 3.31395C6.38005 3.75041 6.59434 4.15132 6.90901 4.46599C7.22368 4.78066 7.62459 4.99495 8.06105 5.08177C8.49751 5.16858 8.9499 5.12403 9.36104 4.95373C9.7722 4.78343 10.1236 4.49504 10.3708 4.12503C10.618 3.75502 10.75 3.32001 10.75 2.875C10.75 2.27826 10.5129 1.70597 10.091 1.28401C9.669 0.862051 9.09674 0.625001 8.5 0.625001ZM8.5 6.25C8.05499 6.25 7.61998 6.38196 7.24997 6.62919C6.87996 6.87643 6.59157 7.22783 6.42127 7.63896C6.25097 8.0501 6.20642 8.5025 6.29323 8.93895C6.38005 9.37541 6.59434 9.7763 6.90901 10.091C7.22368 10.4057 7.62459 10.62 8.06105 10.7068C8.49751 10.7936 8.9499 10.749 9.36104 10.5787C9.7722 10.4084 10.1236 10.12 10.3708 9.75C10.618 9.38002 10.75 8.94501 10.75 8.5C10.75 7.90326 10.5129 7.33097 10.091 6.90901C9.669 6.48705 9.09674 6.25 8.5 6.25ZM14.125 11.875C13.68 11.875 13.245 12.007 12.875 12.2542C12.505 12.5014 12.2166 12.8528 12.0463 13.264C11.876 13.6751 11.8314 14.1275 11.9182 14.564C12.0051 15.0004 12.2193 15.4013 12.534 15.716C12.8487 16.0307 13.2496 16.245 13.686 16.3318C14.1225 16.4186 14.5749 16.374 14.986 16.2037C15.3972 16.0334 15.7486 15.745 15.9958 15.375C16.243 15.005 16.375 14.57 16.375 14.125C16.375 13.5283 16.1379 12.956 15.716 12.534C15.294 12.1121 14.7217 11.875 14.125 11.875ZM14.125 5.125C14.57 5.125 15.005 4.99304 15.375 4.74581C15.745 4.49857 16.0334 4.14717 16.2037 3.73604C16.374 3.3249 16.4186 2.8725 16.3318 2.43605C16.245 1.99959 16.0307 1.59868 15.716 1.28401C15.4013 0.969341 15.0004 0.755051 14.564 0.668231C14.1275 0.581421 13.6751 0.625971 13.264 0.796271C12.8528 0.966571 12.5014 1.25496 12.2542 1.62497C12.007 1.99498 11.875 2.42999 11.875 2.875C11.875 3.47174 12.1121 4.04403 12.534 4.46599C12.956 4.88795 13.5283 5.125 14.125 5.125ZM14.125 6.25C13.68 6.25 13.245 6.38196 12.875 6.62919C12.505 6.87643 12.2166 7.22783 12.0463 7.63896C11.876 8.0501 11.8314 8.5025 11.9182 8.93895C12.0051 9.37541 12.2193 9.7763 12.534 10.091C12.8487 10.4057 13.2496 10.62 13.686 10.7068C14.1225 10.7936 14.5749 10.749 14.986 10.5787C15.3972 10.4084 15.7486 10.12 15.9958 9.75C16.243 9.38002 16.375 8.94501 16.375 8.5C16.375 7.90326 16.1379 7.33097 15.716 6.90901C15.294 6.48705 14.7217 6.25 14.125 6.25Z" fill="white"/>
</svg>
