<svg width="6" height="12" viewBox="0 0 6 12" fill="none" xmlns="http://www.w3.org/2000/svg">
<path d="M3.9975 11.0801V6.29492H5.61078L5.8432 4.42188H3.9975V3.23242C3.9975 2.9681 4.05446 2.75163 4.1684 2.58301C4.28233 2.41439 4.5307 2.33008 4.91351 2.33008H5.89789V0.662109C5.68825 0.634766 5.46495 0.614258 5.22797 0.600586C4.99099 0.586914 4.75401 0.580078 4.51703 0.580078C4.50791 0.580078 4.4988 0.580078 4.48969 0.580078C4.48057 0.580078 4.47146 0.580078 4.46234 0.580078C3.7514 0.580078 3.17263 0.791992 2.72601 1.21582C2.2794 1.63965 2.05609 2.2526 2.05609 3.05469V4.42188H0.456482V6.29492H2.05609V11.0801H3.9975Z" fill="#FF2966"/>
</svg>
