<svg width="17" height="14" viewBox="0 0 17 14" fill="none" xmlns="http://www.w3.org/2000/svg">
<path d="M15.4786 0H5.92885C5.38659 0 4.99495 0.262664 4.72382 0.755159C4.63345 0.919325 4.54307 1.08349 4.45269 1.21482C4.33219 1.41182 4.24182 1.60882 4.12131 1.83865C3.91043 2.26548 3.69956 2.69231 3.45855 3.0863C3.18742 3.61163 2.91629 4.10413 2.64516 4.62946C2.61504 4.66229 2.61504 4.69512 2.58491 4.76079C2.04265 5.74578 1.53052 6.7636 1.01838 7.74859C0.988255 7.78143 0.988255 7.84709 0.95813 7.87992V8.17542C1.04851 8.37242 1.19913 8.40525 1.41001 8.40525C1.77152 8.40525 2.13303 8.40525 2.49453 8.40525C3.42843 8.40525 4.36232 8.40525 5.29621 8.40525C5.59747 8.40525 5.8686 8.40525 6.16985 8.40525C6.19998 8.40525 6.2301 8.40525 6.26023 8.40525C6.77236 8.43809 6.80249 8.76642 6.62173 9.16041C6.44098 9.48874 6.38073 9.88274 6.56148 10.2439C7.19412 11.4587 7.85688 12.6407 8.48952 13.8227C8.5799 14.0197 8.76065 14.0525 8.91128 13.9212C9.03178 13.8227 9.12216 13.6914 9.21253 13.5272C10.2669 11.5572 11.2912 9.58724 12.3155 7.65009C12.677 6.99343 13.0084 6.33677 13.3397 5.68011C13.5205 5.31895 13.7314 4.95779 13.9121 4.59662C14.123 4.13696 13.9724 3.8743 13.5205 3.8743C12.436 3.8743 11.3514 3.8743 10.2669 3.8743C9.66442 3.8743 9.24266 4.16979 8.97153 4.69512C8.88115 4.85929 8.79077 5.05628 8.7004 5.22045C8.7004 5.22045 8.7004 5.22045 8.7004 5.25328C8.39914 5.81144 8.12801 6.33677 7.82676 6.89493C7.61588 7.28893 7.31462 7.55159 6.92299 7.68293H6.89287C6.71211 7.74859 6.50123 7.74859 6.3506 7.5516C6.19998 7.3546 6.29035 7.12477 6.38073 6.92777C6.92299 5.90994 7.46525 4.89212 8.00751 3.8743C8.24851 3.41463 8.48952 2.9878 8.73052 2.52814C8.88115 2.19981 9.0619 1.90432 9.21253 1.60882C9.39329 1.28049 9.90542 0.952158 9.90542 0.952158L9.96567 0.919325L10.056 0.886492C10.0509 0.886794 10.1163 0.853659 10.1163 0.853659C10.2368 0.820826 10.3874 0.787992 10.5079 0.853659C10.5682 0.886492 10.5983 0.919325 10.6586 0.984991C10.6887 1.05066 10.7188 1.11632 10.7188 1.14916V1.18199C10.7188 1.21482 10.7188 1.28049 10.6887 1.34615C10.6887 1.37899 10.6887 1.37899 10.6887 1.41182C10.6887 1.47749 10.6586 1.51032 10.6284 1.57599C10.5983 1.60882 10.5983 1.67448 10.5682 1.70732C10.4477 1.93715 10.3272 2.13415 10.2368 2.36398C10.2067 2.42964 10.1766 2.46248 10.1766 2.52814C10.1464 2.59381 10.1163 2.69231 10.1163 2.79081C10.0862 3.02064 10.2067 3.11914 10.4176 3.15197C10.4778 3.15197 10.5682 3.15197 10.6284 3.15197C11.713 3.15197 12.7975 3.15197 13.9121 3.15197C14.4544 3.15197 14.8761 2.88931 15.1473 2.39681C15.3581 1.96998 15.5992 1.54315 15.81 1.14916C15.8402 1.08349 15.8703 1.01782 15.9305 0.952158C16.1715 0.262664 16.0209 0 15.4786 0Z" fill="#FF2966"/>
</svg>
