<svg width="15" height="14" viewBox="0 0 15 14" fill="none" xmlns="http://www.w3.org/2000/svg">
<path d="M10.1113 0.469832C10.2437 0.554971 10.3481 0.677111 10.4117 0.821088C10.4753 0.965065 10.4951 1.12454 10.4689 1.27971L9.89199 4.67431C9.84573 4.94646 9.87036 5.22593 9.9635 5.4858L11.4178 9.54324C12.1248 9.68304 12.7515 9.86462 13.2392 10.0872C13.5332 10.2214 13.8209 10.3893 14.0458 10.6062C14.2716 10.8239 14.4974 11.155 14.4974 11.5896C14.4974 12.271 13.9647 12.6904 13.5975 12.9073C13.1773 13.1556 12.6221 13.3516 12.0067 13.5051C10.7629 13.816 9.08693 14 7.2663 14C5.44568 14 3.76967 13.816 2.52592 13.5051C1.91048 13.3516 1.35529 13.1556 0.935086 12.9073C0.567907 12.6904 0.0352173 12.271 0.0352173 11.5896C0.0352173 11.1558 0.260184 10.8239 0.486759 10.6062C0.711726 10.3893 0.999362 10.2206 1.29343 10.0872C1.78193 9.86462 2.40782 9.68304 3.11566 9.54244L5.09216 4.02592C5.32236 3.38323 5.75123 2.83053 6.31662 2.44794L9.22673 0.479474C9.35698 0.391355 9.51022 0.343395 9.66747 0.341538C9.82471 0.339681 9.97904 0.384813 10.1113 0.469832ZM12.7121 2.29448C12.8487 2.01086 12.8945 1.9739 12.9837 2.12736L13.0375 2.2302L13.0688 2.29448C13.4139 3.0132 13.9424 3.62818 14.601 4.07734L14.7826 4.19545C14.9939 4.324 15.0301 4.36096 14.8453 4.48309L14.7826 4.52246C14.1036 4.93942 13.5466 5.52806 13.1677 6.22899L12.9837 6.58974C12.8953 6.7432 12.8487 6.70624 12.7121 6.42262C12.3671 5.7039 11.8386 5.08892 11.1799 4.63976L10.8931 4.45496C10.7814 4.37462 10.7886 4.33204 10.9357 4.23482L10.9983 4.19464C11.7403 3.73905 12.3353 3.07935 12.7121 2.29448ZM3.7295 0.0721226L3.78494 0.170948C4.03722 0.636951 4.41806 1.03546 4.89049 1.33194L5.07207 1.43719C5.22071 1.51834 5.24321 1.54807 5.16447 1.6019L5.07207 1.65573C4.58975 1.91382 4.18129 2.29076 3.88537 2.75084L3.72388 3.02723C3.66201 3.12043 3.62907 3.11239 3.57283 3.0208L3.51658 2.92278C3.25498 2.44646 2.87399 2.04637 2.41103 1.76179L2.22945 1.65573C2.08081 1.57458 2.05831 1.54485 2.13705 1.49102L2.22945 1.43719C2.71177 1.1791 3.12023 0.802166 3.41615 0.342083L3.51658 0.170948C3.62264 -0.0242918 3.65719 -0.0451817 3.7295 0.0721226Z" fill="#FF2966"/>
</svg>
