<svg width="12" height="12" viewBox="0 0 12 12" fill="none" xmlns="http://www.w3.org/2000/svg">
<path d="M6.17719 3.13672C5.80349 3.13672 5.45258 3.20508 5.12445 3.3418C4.79633 3.48763 4.51149 3.68359 4.26996 3.92969C4.02842 4.17578 3.83474 4.45833 3.6889 4.77734C3.55219 5.10547 3.48383 5.45638 3.48383 5.83008C3.48383 6.20378 3.55219 6.55469 3.6889 6.88281C3.83474 7.21094 4.02842 7.49805 4.26996 7.74414C4.51149 7.99023 4.79633 8.18164 5.12445 8.31836C5.45258 8.46419 5.80349 8.53711 6.17719 8.53711C6.55088 8.53711 6.90179 8.46419 7.22992 8.31836C7.55804 8.18164 7.84288 7.99023 8.08441 7.74414C8.32595 7.49805 8.51963 7.21094 8.66547 6.88281C8.80219 6.55469 8.87054 6.20378 8.87054 5.83008C8.87054 5.45638 8.80219 5.10547 8.66547 4.77734C8.51963 4.45833 8.32595 4.17578 8.08441 3.92969C7.84288 3.68359 7.55804 3.48763 7.22992 3.3418C6.90179 3.20508 6.55088 3.13672 6.17719 3.13672ZM6.17719 7.58008C5.69411 7.58008 5.28168 7.40918 4.93988 7.06738C4.59808 6.72559 4.42719 6.31315 4.42719 5.83008C4.42719 5.34701 4.59808 4.93457 4.93988 4.59277C5.28168 4.25098 5.69411 4.08008 6.17719 4.08008C6.66026 4.08008 7.07269 4.25098 7.41449 4.59277C7.75629 4.93457 7.92719 5.34701 7.92719 5.83008C7.92719 6.31315 7.75629 6.72559 7.41449 7.06738C7.07269 7.40918 6.66026 7.58008 6.17719 7.58008ZM9.60883 3.04102C9.60883 3.21419 9.5473 3.3623 9.42426 3.48535C9.30121 3.6084 9.1531 3.66992 8.97992 3.66992C8.80674 3.66992 8.65863 3.6084 8.53558 3.48535C8.41254 3.3623 8.35101 3.21419 8.35101 3.04102C8.35101 2.86784 8.41254 2.71973 8.53558 2.59668C8.65863 2.47363 8.80674 2.41211 8.97992 2.41211C9.1531 2.41211 9.30121 2.47363 9.42426 2.59668C9.5473 2.71973 9.60883 2.86784 9.60883 3.04102ZM11.1537 2.39844C11.017 2.04297 10.8165 1.73307 10.5522 1.46875C10.2879 1.20443 9.98252 1.00391 9.63617 0.867188H9.6225C9.43109 0.794271 9.22829 0.735026 9.0141 0.689453C8.79991 0.64388 8.57888 0.621094 8.35101 0.621094H8.33734C8.0639 0.602864 7.81325 0.591472 7.58539 0.586914C7.35752 0.582356 6.88812 0.580078 6.17719 0.580078C5.46625 0.580078 4.99685 0.582356 4.76898 0.586914C4.54112 0.591472 4.29047 0.602864 4.01703 0.621094C3.78916 0.621094 3.56586 0.64388 3.34711 0.689453C3.12836 0.735026 2.91872 0.794271 2.7182 0.867188H2.74554C2.39008 1.00391 2.08018 1.20443 1.81586 1.46875C1.55153 1.73307 1.35101 2.03841 1.21429 2.38477L1.20062 2.39844C1.12771 2.58984 1.07074 2.79264 1.02972 3.00684C0.988708 3.22103 0.963643 3.44206 0.954529 3.66992C0.945414 3.95247 0.938578 4.2054 0.934021 4.42871C0.929464 4.65202 0.927185 5.11914 0.927185 5.83008C0.927185 6.55013 0.929464 7.02181 0.934021 7.24512C0.938578 7.46842 0.945414 7.72135 0.954529 8.00391C0.963643 8.22266 0.988708 8.43913 1.02972 8.65332C1.07074 8.86751 1.12771 9.07487 1.20062 9.27539C1.34646 9.63086 1.55153 9.94076 1.81586 10.2051C2.08018 10.4694 2.38096 10.6699 2.7182 10.8066H2.74554C2.92784 10.8887 3.12608 10.9525 3.34027 10.998C3.55446 11.0436 3.77549 11.071 4.00336 11.0801H4.01703C4.29958 11.0892 4.55251 11.096 4.77582 11.1006C4.99913 11.1051 5.46625 11.1074 6.17719 11.1074C6.88812 11.1074 7.35752 11.1051 7.58539 11.1006C7.81325 11.096 8.06846 11.0892 8.35101 11.0801C8.57888 11.071 8.80219 11.0459 9.02094 11.0049C9.23969 10.9639 9.44932 10.9023 9.64984 10.8203L9.6225 10.834C9.97797 10.6882 10.2879 10.4854 10.5522 10.2256C10.8165 9.96582 11.017 9.66276 11.1537 9.31641V9.28906C11.2358 9.08854 11.2973 8.88118 11.3383 8.66699C11.3793 8.4528 11.3998 8.23633 11.3998 8.01758C11.409 7.73503 11.4158 7.4821 11.4203 7.25879C11.4249 7.03548 11.4272 6.56836 11.4272 5.85742C11.4272 5.14648 11.4272 4.67708 11.4272 4.44922C11.4272 4.22135 11.4181 3.9707 11.3998 3.69727C11.3998 3.46029 11.3771 3.23014 11.3315 3.00684C11.2859 2.78353 11.2221 2.57161 11.1401 2.37109L11.1537 2.39844ZM10.4428 7.96289C10.4428 8.13607 10.4269 8.30697 10.395 8.47559C10.3631 8.64421 10.3152 8.80599 10.2514 8.96094L10.2651 8.94727C10.1739 9.17513 10.0418 9.37565 9.86859 9.54883C9.69541 9.72201 9.49945 9.84961 9.2807 9.93164L9.26703 9.94531C9.1212 10 8.96625 10.0433 8.80219 10.0752C8.63812 10.1071 8.4695 10.123 8.29633 10.123C8.01377 10.1322 7.7654 10.139 7.55121 10.1436C7.33702 10.1481 6.87445 10.1504 6.16351 10.1504C5.45258 10.1504 4.99001 10.1504 4.77582 10.1504C4.56163 10.1504 4.31325 10.1413 4.0307 10.123C3.84841 10.123 3.67523 10.1071 3.51117 10.0752C3.34711 10.0433 3.1876 9.99544 3.03265 9.93164L3.04633 9.94531C2.81846 9.85417 2.61794 9.72201 2.44476 9.54883C2.27159 9.37565 2.13942 9.17969 2.04828 8.96094V8.94727C1.99359 8.80143 1.9503 8.64648 1.9184 8.48242C1.88649 8.31836 1.87054 8.14974 1.87054 7.97656V7.96289C1.85232 7.68945 1.8432 7.44336 1.8432 7.22461C1.8432 7.00586 1.8432 6.54557 1.8432 5.84375C1.8432 5.13281 1.8432 4.67025 1.8432 4.45605C1.8432 4.24186 1.85232 3.99349 1.87054 3.71094C1.87054 3.52865 1.88649 3.35319 1.9184 3.18457C1.9503 3.01595 1.99815 2.85417 2.06195 2.69922L2.04828 2.72656C2.13942 2.48958 2.27159 2.2845 2.44476 2.11133C2.61794 1.93815 2.81846 1.81055 3.04633 1.72852C3.19216 1.67383 3.34711 1.63053 3.51117 1.59863C3.67523 1.56673 3.84841 1.54622 4.0307 1.53711C4.30414 1.528 4.55023 1.52116 4.76898 1.5166C4.98773 1.51204 5.45258 1.50977 6.16351 1.50977C6.87445 1.50977 7.33702 1.51204 7.55121 1.5166C7.7654 1.52116 8.01377 1.528 8.29633 1.53711C8.4695 1.54622 8.63812 1.56673 8.80219 1.59863C8.96625 1.63053 9.12575 1.67383 9.2807 1.72852H9.26703C9.49489 1.81966 9.69541 1.94954 9.86859 2.11816C10.0418 2.28678 10.1739 2.48503 10.2651 2.71289V2.72656C10.3198 2.86328 10.3631 3.01595 10.395 3.18457C10.4269 3.35319 10.4428 3.52409 10.4428 3.69727C10.4519 3.9707 10.4588 4.2168 10.4633 4.43555C10.4679 4.6543 10.4702 5.11914 10.4702 5.83008C10.4702 6.54102 10.4702 7.00358 10.4702 7.21777C10.4702 7.43197 10.4656 7.68034 10.4565 7.96289H10.4428Z" fill="#FF2966"/>
</svg>
