<svg width="12" height="12" viewBox="0 0 12 12" fill="none" xmlns="http://www.w3.org/2000/svg">
<path d="M3.36078 1.75586C3.36078 2.11133 3.23545 2.41211 2.9848 2.6582C2.73415 2.9043 2.43565 3.02734 2.08929 3.02734C1.73383 3.02734 1.43077 2.9043 1.18011 2.6582C0.929464 2.41211 0.804138 2.11133 0.804138 1.75586C0.804138 1.40039 0.929464 1.09961 1.18011 0.853516C1.43077 0.607422 1.73383 0.484375 2.08929 0.484375C2.43565 0.484375 2.73415 0.607422 2.9848 0.853516C3.23545 1.09961 3.36078 1.40039 3.36078 1.75586ZM4.5639 3.99805V11.0801H6.76508V7.58008C6.76508 7.11523 6.84255 6.69596 6.9975 6.32227C7.15245 5.94857 7.51247 5.76172 8.07758 5.76172C8.64268 5.76172 8.97536 5.97135 9.07562 6.39062C9.17588 6.8099 9.22601 7.22461 9.22601 7.63477V11.0801H11.4272V7.19727C11.4272 6.24023 11.2654 5.43815 10.9418 4.79102C10.6183 4.14388 9.90049 3.82031 8.78851 3.82031C8.25075 3.82031 7.80642 3.94108 7.45551 4.18262C7.10459 4.42415 6.85622 4.6862 6.71039 4.96875H6.66937V3.99805H4.5639ZM0.981873 3.99805H3.18304V11.0801H0.981873V3.99805Z" fill="#FF2966"/>
</svg>
