<svg width="240" height="49" viewBox="0 0 240 49" fill="none" xmlns="http://www.w3.org/2000/svg">
<path d="M39.677 13.9822H13.5824C12.1007 13.9822 11.0305 14.6407 10.2897 15.8755C10.0427 16.2871 9.79577 16.6987 9.54881 17.0279C9.21955 17.5218 8.97259 18.0157 8.64332 18.592C8.0671 19.6621 7.40856 20.6499 6.83234 21.72C6.09149 23.0371 5.35063 24.2719 4.60977 25.5889C4.52745 25.6713 4.52746 25.7536 4.44514 25.9182C2.96343 28.3877 1.56403 30.9396 0.164635 33.4091C0.0823174 33.4914 0.0823174 33.5737 0 33.656V34.3969C0.246952 34.8908 0.658539 34.9731 1.23476 34.9731C2.22257 34.9731 3.21038 34.9731 4.19819 34.9731C6.75002 34.9731 9.30186 34.9731 11.8537 34.9731C12.6769 34.9731 13.4177 34.9731 14.2409 34.9731C14.3232 34.9731 14.4055 34.9731 14.4879 34.9731C15.8873 35.0554 15.9696 35.8786 15.4757 36.8664C14.9818 37.6896 14.8171 38.6774 15.311 39.5829C17.0397 42.6286 18.8507 45.5921 20.5793 48.5555C20.8263 49.0494 21.3202 49.1317 21.7318 48.8024C22.0611 48.5555 22.308 48.2262 22.555 47.8146C25.4361 42.8756 28.2349 37.9365 31.0336 33.0798C32.0215 31.4335 32.9269 29.7871 33.8324 28.1408C34.3263 27.2353 34.9026 26.3298 35.3965 25.4243C35.9727 24.2719 35.5611 23.6133 34.3263 23.6133C31.3629 23.6133 28.3995 23.6133 25.4361 23.6133C23.7897 23.6133 22.6373 24.3542 21.8964 25.6713C21.6495 26.0828 21.4025 26.5767 21.1556 26.9883C21.1556 26.9883 21.1556 26.9883 21.1556 27.0707C20.3324 28.47 19.5915 29.7871 18.7684 31.1865C18.1921 32.1743 17.369 32.8329 16.2988 33.1621H16.2165C15.7226 33.3268 15.1464 33.3268 14.7348 32.8329C14.3232 32.339 14.5702 31.7627 14.8171 31.2688C16.2988 28.717 17.7806 26.1652 19.2623 23.6133C19.9208 22.4609 20.5793 21.3908 21.2379 20.2383C21.6495 19.4151 22.1434 18.6743 22.555 17.9334C23.0489 17.1103 23.6251 16.534 24.4483 16.2871C24.5306 16.2871 24.6129 16.2048 24.6129 16.2048C24.6952 16.2048 24.7775 16.1224 24.8598 16.1224C24.9422 16.1224 24.9422 16.1224 25.0245 16.0401C25.3537 15.9578 25.7653 15.8755 26.0946 16.0401C26.2592 16.1224 26.3416 16.2048 26.5062 16.3694C26.5885 16.534 26.6708 16.6987 26.6708 16.781V16.8633C26.6708 16.9456 26.6708 17.1103 26.5885 17.2749C26.5885 17.3572 26.5885 17.3572 26.5885 17.4395C26.5885 17.6042 26.5062 17.6865 26.4239 17.8511C26.3416 17.9334 26.3416 18.0981 26.2592 18.1804C25.93 18.7566 25.6007 19.2505 25.3537 19.8267C25.2714 19.9914 25.1891 20.0737 25.1891 20.2383C25.1068 20.4029 25.0245 20.6499 25.0245 20.8969C24.9422 21.4731 25.2714 21.72 25.8477 21.8023C26.0123 21.8023 26.2592 21.8023 26.4239 21.8023C29.3873 21.8023 32.3507 21.8023 35.3965 21.8023C36.8782 21.8023 38.0306 21.1438 38.7715 19.909C39.3477 18.8389 40.0062 17.7688 40.5825 16.781C40.6648 16.6163 40.7471 16.4517 40.9117 16.2871C41.5703 14.6407 41.1587 13.9822 39.677 13.9822Z" fill="white"/>
<path d="M179.534 34.9731C175.089 34.9731 170.644 34.9731 166.199 34.9731C165.129 34.9731 164.717 34.3969 165.129 33.4091C165.211 33.2445 165.293 33.0798 165.376 32.9152C167.598 29.0463 169.821 25.1774 172.043 21.3084C173.031 19.5798 174.019 17.7688 175.089 16.0401C175.912 14.6407 177.065 13.8999 178.793 13.8999C181.674 13.9822 184.638 13.8999 187.519 13.8999C187.684 13.8999 187.848 13.8999 188.013 13.8999C188.671 13.9822 189.001 14.3115 188.918 14.97C188.836 15.2993 188.754 15.5462 188.589 15.8755C185.708 20.9792 182.745 26.0005 179.863 31.1042C179.534 31.5981 179.287 32.1743 179.699 32.6682C180.11 33.1621 180.769 33.0798 181.345 32.9152C182.415 32.5859 183.238 31.9274 183.732 31.0219C186.613 26.0828 189.412 21.0615 192.293 16.1224C192.87 15.0523 193.775 14.3115 194.928 13.9822C195.174 13.8999 195.421 13.8999 195.668 13.8999C198.714 13.8999 201.76 13.8999 204.723 13.8999C206.287 13.8999 206.287 14.8877 205.793 15.7932C203.406 19.909 201.019 24.0249 198.714 28.1408C197.809 29.7048 196.903 31.3512 195.915 32.9152C195.174 34.2323 194.022 34.8908 192.458 34.8908C188.177 34.9731 183.815 34.9731 179.534 34.9731Z" fill="white"/>
<path d="M173.196 2.45776C174.76 2.45776 176.406 2.45776 177.97 2.45776C178.876 2.45776 179.287 2.95167 178.958 3.85716C178.876 4.10411 178.793 4.35106 178.629 4.59801C177.97 5.75046 177.312 6.9029 176.653 8.05534C176.488 8.38461 176.324 8.7962 176.241 9.12547C176.159 9.70169 176.571 10.031 177.147 10.1133C177.476 10.1133 177.805 10.1133 178.135 10.1956C178.382 10.2779 178.711 10.5249 178.711 10.6895C178.711 10.9365 178.546 11.2657 178.382 11.348C177.805 11.595 177.147 11.8419 176.488 11.9243C174.924 12.0066 173.854 12.7474 173.113 14.0645C170.232 19.0859 167.269 24.1895 164.388 29.2109C160.766 35.467 157.226 41.6408 153.604 47.8969C153.44 48.2262 153.11 48.5555 152.781 48.8024C152.369 49.1317 151.958 49.0494 151.711 48.5555C149.982 45.5921 148.171 42.5463 146.443 39.5006C145.949 38.5951 146.196 37.6073 146.69 36.7018C147.513 35.2201 148.336 33.7384 149.241 32.2566C154.592 22.9548 159.943 13.7352 165.293 4.43338C166.034 3.1163 167.187 2.37544 168.833 2.37544C170.315 2.54008 171.714 2.45776 173.196 2.45776Z" fill="white"/>
<path d="M96.5583 34.9731C92.1954 34.9731 87.7503 34.9731 83.3875 34.9731C83.1405 34.9731 82.9759 34.9731 82.729 34.9731C82.3174 34.8908 81.9881 34.6438 82.0704 34.2323C82.0704 33.8207 82.1527 33.4091 82.3174 33.0798C83.7991 30.528 85.1985 27.9761 86.6802 25.4243C87.421 24.1895 88.5735 23.531 90.0552 23.531C94.2534 23.531 98.4516 23.531 102.65 23.531C104.296 23.531 105.449 22.7901 106.272 21.4731C106.93 20.3206 107.589 19.1682 108.247 18.0157C108.412 17.6865 108.577 17.3572 108.659 17.0279C108.824 16.2871 108.412 15.7932 107.671 15.8755C106.272 15.8755 105.366 16.6987 104.625 17.7688C104.214 18.345 103.885 19.0036 103.555 19.6621C102.814 20.8969 101.662 21.6377 100.18 21.6377C97.2168 21.6377 94.1711 21.6377 91.2076 21.6377C90.9607 21.6377 90.7961 21.6377 90.5491 21.6377C90.1375 21.5554 89.8082 21.3084 89.8906 20.8969C89.8906 20.5676 89.9729 20.156 90.1375 19.8267C90.8784 18.5096 91.6192 17.1926 92.4424 15.8755C93.1833 14.723 94.2534 14.0645 95.6528 14.0645C104.461 14.0645 113.186 14.0645 121.994 14.0645C122.077 14.0645 122.159 14.0645 122.241 14.0645C123.064 14.0645 123.476 14.5584 123.229 15.3816C123.147 15.6285 123.064 15.8755 122.9 16.1224C119.607 21.8023 116.314 27.4822 113.022 33.1621C112.281 34.3969 111.211 35.1378 109.647 35.1378C105.284 34.9731 100.921 34.9731 96.5583 34.9731ZM96.476 32.092C96.5583 32.7505 96.9699 33.1621 97.7107 33.0798C98.8632 32.9152 99.7686 32.4213 100.345 31.5158C101.25 30.1164 102.074 28.6347 102.897 27.153C103.144 26.7414 103.226 26.2475 102.897 25.8359C102.567 25.4243 102.074 25.4243 101.58 25.5066C100.51 25.7536 99.604 26.3298 99.0278 27.3176C98.2869 28.6347 97.4638 29.8694 96.8052 31.1865C96.6406 31.4335 96.5583 31.7627 96.476 32.092Z" fill="white"/>
<path d="M47.8264 34.9731C43.4636 34.9731 39.1007 34.9731 34.7379 34.9731C33.3385 34.9731 32.9269 34.3146 33.6678 33.0798C34.6556 31.2688 35.7257 29.5402 36.7135 27.7292C37.1251 26.9883 37.5367 26.2475 37.9483 25.5889C38.7715 24.2719 39.8416 23.531 41.488 23.531C45.6861 23.531 49.802 23.531 54.0002 23.531C55.6465 23.531 56.799 22.7901 57.6222 21.3908C58.2807 20.2383 59.0216 19.0859 59.5978 17.9334C59.7624 17.6042 59.927 17.1926 59.927 16.8633C60.0094 16.2871 59.5978 15.8755 59.0215 15.8755C57.6222 15.8755 56.6343 16.6163 55.8935 17.7688C55.4819 18.4273 55.1526 19.0859 54.741 19.6621C54.0002 20.8969 52.9301 21.5554 51.4484 21.5554C48.4026 21.5554 45.4392 21.5554 42.3934 21.5554C42.2288 21.5554 42.0642 21.5554 41.8995 21.5554C41.3233 21.4731 40.994 21.1438 41.0764 20.5676C41.1587 20.156 41.241 19.8267 41.488 19.4975C42.1465 18.2627 42.8873 17.1103 43.5459 15.8755C44.2867 14.6407 45.3569 13.9822 46.8386 13.9822C55.5642 13.9822 64.2075 13.9822 72.9332 13.9822C74.4972 13.9822 74.8265 14.6407 74.0856 16.0401C71.6161 20.3206 69.1466 24.6011 66.6771 28.8816C65.8539 30.281 65.113 31.6804 64.2899 33.0798C63.549 34.3146 62.3966 35.0554 60.9148 35.0554C56.552 34.9731 52.1892 34.9731 47.8264 34.9731ZM47.7441 32.092C47.8264 32.8329 48.238 33.1621 49.0611 33.0798C50.2136 32.9152 51.1191 32.4213 51.6953 31.4335C52.6008 30.0341 53.424 28.5524 54.2471 27.0707C54.4941 26.6591 54.5764 26.1652 54.2471 25.7536C53.9179 25.342 53.424 25.342 53.0124 25.4243C51.8599 25.6713 51.0368 26.2475 50.3782 27.2353C49.6374 28.5524 48.8965 29.7871 48.1557 31.1042C47.991 31.4335 47.9087 31.7627 47.7441 32.092Z" fill="white"/>
<path d="M130.061 34.9731C125.699 34.9731 121.336 34.9731 116.973 34.9731C116.808 34.9731 116.644 34.9731 116.479 34.9731C115.656 34.9731 115.327 34.4792 115.491 33.656C115.574 33.3268 115.738 33.0798 115.821 32.8329C119.031 27.2353 122.324 21.6377 125.534 16.0401C126.357 14.6407 127.51 13.8999 129.238 13.8999C137.799 13.8999 146.443 13.8999 155.004 13.8999C155.086 13.8999 155.168 13.8999 155.251 13.8999C156.568 13.8999 156.979 14.5584 156.321 15.7109C155.58 17.1103 154.757 18.5096 153.933 19.8267C153.193 20.8969 152.205 21.5554 150.888 21.5554C147.842 21.5554 144.796 21.5554 141.751 21.5554C141.586 21.5554 141.421 21.5554 141.257 21.5554C140.68 21.4731 140.351 21.1438 140.433 20.5676C140.516 20.2383 140.598 19.8267 140.763 19.5798C141.092 19.0036 141.421 18.4273 141.751 17.8511C141.997 17.3572 142.244 16.781 141.833 16.2048C141.421 15.7109 140.763 15.7932 140.269 15.9578C139.281 16.2871 138.458 16.8633 137.964 17.7688C135.412 22.2139 132.86 26.6591 130.308 31.1042C129.979 31.5981 129.732 32.1743 130.226 32.7505C130.638 33.2445 131.296 33.1621 131.872 32.9975C132.86 32.6682 133.683 32.092 134.177 31.1865C135.247 29.2932 136.318 27.4822 137.388 25.5889C137.964 24.5188 138.869 23.8603 140.022 23.6133C140.269 23.531 140.433 23.531 140.68 23.531C143.726 23.531 146.772 23.531 149.818 23.531C151.299 23.531 151.382 24.5188 150.888 25.342C149.818 27.2353 148.747 29.0463 147.677 30.9396C147.266 31.6804 146.854 32.339 146.443 33.0798C145.702 34.3146 144.632 35.0554 143.068 35.0554C138.787 34.9731 134.424 34.9731 130.061 34.9731Z" fill="white"/>
<path d="M227.69 23.531C229.254 23.531 230.818 23.531 232.382 23.531C233.699 23.531 234.111 24.2719 233.452 25.4243C232.3 27.3999 231.229 29.3755 230.077 31.3512C229.748 31.9274 229.501 32.4213 229.172 32.9975C228.348 34.3146 227.278 35.1378 225.632 35.0554C222.668 35.0554 219.623 35.0554 216.659 35.0554C215.507 35.0554 215.013 34.3969 215.671 33.3268C216.742 31.4335 217.812 29.6225 218.882 27.7292C219.046 27.3999 219.211 27.0707 219.293 26.6591C219.458 25.9182 219.047 25.4243 218.306 25.4243C217.812 25.4243 217.318 25.5889 216.824 25.8359C216.001 26.2475 215.425 26.8237 215.013 27.6469C214.025 29.4579 212.955 31.1865 211.967 32.9975C211.144 34.3146 210.074 35.0554 208.428 35.0554C205.464 35.0554 202.501 35.0554 199.537 35.0554C199.373 35.0554 199.29 35.0554 199.126 35.0554C198.385 35.0554 198.138 34.7262 198.22 33.9853C198.303 33.656 198.385 33.2445 198.549 32.9975C199.949 30.528 201.431 27.9761 202.83 25.5066C203.571 24.2719 204.641 23.6133 206.123 23.6133C209.251 23.6133 212.461 23.6133 215.589 23.6133C216.165 23.6133 216.824 23.3664 217.4 23.1194C217.729 23.0371 217.976 22.7078 217.976 22.2962C217.894 21.8847 217.565 21.8023 217.236 21.72C216.989 21.6377 216.659 21.6377 216.33 21.6377C213.284 21.6377 210.239 21.6377 207.193 21.6377C205.958 21.6377 205.546 20.9792 206.123 19.8267C206.864 18.4273 207.604 17.1103 208.428 15.7932C209.168 14.6407 210.239 13.9822 211.638 13.9822C214.684 13.9822 217.729 13.9822 220.693 13.9822C220.775 13.9822 220.857 13.9822 220.94 13.9822C221.845 13.9822 222.175 14.4761 221.928 15.3816C221.845 15.6285 221.681 15.8755 221.598 16.2048C221.351 16.6987 221.022 17.1926 220.693 17.6865C220.611 17.9334 220.446 18.0981 220.364 18.345C220.117 19.2505 220.611 19.8267 221.516 19.7444C222.751 19.5798 223.739 18.9212 224.397 17.9334C224.809 17.2749 225.138 16.6163 225.55 15.9578C226.29 14.723 227.361 14.0645 228.842 14.0645C231.888 14.0645 234.851 14.0645 237.897 14.0645C239.05 14.0645 239.544 14.723 238.967 15.7932C238.226 17.2749 237.403 18.6743 236.498 20.0737C235.757 21.1438 234.687 21.72 233.37 21.72C230.406 21.72 227.361 21.72 224.397 21.72C223.739 21.72 223.162 21.8847 222.504 22.0493C222.257 22.1316 222.092 22.2139 221.845 22.3786C221.351 22.7901 221.434 23.3664 222.092 23.531C222.504 23.6133 222.915 23.6133 223.327 23.6956C224.891 23.531 226.29 23.531 227.69 23.531Z" fill="white"/>
<path d="M72.0277 34.9731C70.4637 34.9731 68.8996 34.9731 67.4179 34.9731C66.1832 34.9731 65.7716 34.2323 66.4301 33.1621C67.0886 32.0097 67.7472 30.8573 68.4057 29.7048C73.921 20.2383 79.3539 10.6895 84.8692 1.223C85.0338 0.893731 85.2808 0.564462 85.5277 0.31751C86.0216 -0.176394 86.5155 -0.094077 86.8448 0.564462C88.4912 3.36325 90.0552 6.16204 91.7839 8.87852C92.5247 10.1133 92.4424 11.2657 91.7839 12.4182C90.7137 14.3115 89.6436 16.2048 88.4912 18.0981C85.6924 22.9548 82.8113 27.8938 80.0125 32.7505C79.6009 33.4091 79.1893 33.9853 78.5308 34.4792C77.9545 34.8908 77.296 35.0554 76.5551 35.0554C75.0734 34.9731 73.5917 34.9731 72.0277 34.9731Z" fill="white"/>
</svg>
