<svg width="29" height="34" viewBox="0 0 29 34" fill="none" xmlns="http://www.w3.org/2000/svg">
<path d="M14.3183 34.0088C14.3183 34.0088 6.57392 30.498 6.57392 15.9385C6.57392 11.6533 8.36374 6.3527 9.32748 3.89171L19.3091 3.89171C20.2729 6.3527 22.0627 11.6533 22.0627 15.9385C22.0627 30.498 14.3183 34.0088 14.3183 34.0088ZM10.8764 19.3805C10.8764 21.2736 12.4252 22.8224 14.3183 22.8224C16.2114 22.8224 17.7603 21.2736 17.7603 19.3805C17.7603 17.4874 16.2114 15.9385 14.3183 15.9385C12.4252 15.9385 10.8764 17.4874 10.8764 19.3805ZM21.7357 2.9968C22.5618 5.1136 24.3516 10.1733 24.6098 14.8199L28.0861 12.4966L28.0861 0.449757L21.7357 2.9968ZM0.550506 0.449754L0.550505 12.4966L4.02688 14.8199C4.28502 10.1905 6.09205 5.1136 6.90091 2.9968L0.550506 0.449754Z" fill="url(#paint0_linear_1_1449)"/>
<defs>
<linearGradient id="paint0_linear_1_1449" x1="14.3183" y1="0.449755" x2="14.3183" y2="34.0088" gradientUnits="userSpaceOnUse">
<stop stop-color="#FFEAF0"/>
<stop offset="1" stop-color="white"/>
</linearGradient>
</defs>
</svg>
