<svg width="11" height="14" viewBox="0 0 11 14" fill="none" xmlns="http://www.w3.org/2000/svg">
<path d="M8.11839 0.0593982C8.20403 0.109044 8.2703 0.186264 8.30639 0.278443C8.34249 0.370623 8.34619 0.472312 8.31699 0.566898L6.74114 5.68739H9.64879C9.73419 5.68736 9.81779 5.71235 9.88919 5.75928C9.96059 5.8062 10.0167 5.87302 10.0506 5.95146C10.0845 6.02991 10.0946 6.11656 10.0798 6.20072C10.065 6.28487 10.0259 6.36285 9.96729 6.42502L2.96726 13.8625C2.89953 13.9346 2.8094 13.9815 2.71157 13.9958C2.61373 14.01 2.51395 13.9907 2.4285 13.9409C2.34305 13.8912 2.27696 13.814 2.24101 13.7219C2.20505 13.6298 2.20135 13.5282 2.23051 13.4338L3.80639 8.31239H0.898761C0.813321 8.31243 0.729731 8.28744 0.658321 8.24051C0.586911 8.19359 0.530811 8.12677 0.496931 8.04833C0.463061 7.96988 0.452901 7.88323 0.467711 7.79907C0.482521 7.71492 0.521651 7.63694 0.580261 7.57477L7.58026 0.137273C7.64791 0.0653475 7.7379 0.0184208 7.8356 0.00412322C7.9333 -0.0101743 8.03297 0.00987313 8.11839 0.0593982Z" fill="#FF2966"/>
</svg>
